<svg width="177" height="24" viewBox="0 0 177 24" xmlns="http://www.w3.org/2000/svg">
  <defs>
    <style>
      .cls-1 {
        fill: #000;
      }
    </style>
  </defs>
  <g id="Layer_1-2" data-name="Layer_1" transform="scale(0.18)">
    <g>
      <g>
        <path class="cls-1" d="M189.38,121.62V53.21h13.48v24.84h38.6v12.35h-38.6v31.22c0,11.07,5.82,15.9,14.62,15.9s14.76-4.68,14.76-15.9v-1.56h13.34v1.56c0,19.02-11.35,28.38-28.1,28.38s-28.1-9.37-28.1-28.38Z"/>
        <path class="cls-1" d="M253.95,113.67c0-22,15.61-37.47,37.89-37.47s37.33,15.04,37.33,37.47v34.49h-12.35v-15.33c-4.68,11.35-15.04,17.17-27.25,17.17-18.31,0-35.62-13.2-35.62-36.33ZM315.83,113.1c0-14.19-9.65-24.41-24.13-24.41s-24.13,10.22-24.13,24.41,9.65,24.41,24.13,24.41,24.13-10.22,24.13-24.41Z"/>
        <path class="cls-1" d="M340.24,113.1c0-21.29,15.61-36.9,37.75-36.9,18.59,0,32.5,11.07,36.19,27.25h-13.62c-3.41-8.94-11.64-14.76-22.57-14.76-14.48,0-24.13,10.22-24.13,24.41s9.65,24.41,24.13,24.41c10.93,0,19.16-5.82,22.57-14.76h13.62c-3.69,16.18-17.6,27.25-36.19,27.25-22.14,0-37.75-15.61-37.75-36.9Z"/>
        <path class="cls-1" d="M425.39,121.62V53.21h13.48v24.84h38.6v12.35h-38.6v31.22c0,11.07,5.82,15.9,14.62,15.9s14.76-4.68,14.76-15.9v-1.56h13.34v1.56c0,19.02-11.35,28.38-28.1,28.38s-28.1-9.37-28.1-28.38Z"/>
        <path class="cls-1" d="M492.8,114.66v-36.62h13.48v36.62c0,15.19,8.37,22.85,21.15,22.85s21.15-7.66,21.15-22.85v-36.62h13.48v36.62c0,23.28-13.91,35.34-34.63,35.34s-34.63-11.92-34.63-35.34Z"/>
        <path class="cls-1" d="M573.41,127.86h13.62c.28,5.82,5.68,9.93,15.47,9.93s15.47-4.4,15.47-9.93c0-6.67-7.38-7.52-16.18-8.66-12.21-1.56-26.97-3.83-26.97-19.87,0-13.77,10.79-23.13,27.53-23.13s27.11,9.51,27.39,21.57h-13.34c-.43-5.39-5.39-9.37-13.91-9.37-8.94,0-14.05,4.26-14.05,9.79,0,6.67,7.38,7.38,16.04,8.52,12.21,1.56,27.11,3.83,27.11,19.87,0,14.19-11.5,23.42-29.09,23.42s-28.67-9.37-29.09-22.14Z"/>
      </g>
      <g>
        <path class="cls-1" d="M47.37,47.37C47.37,21.21,26.16,0,0,0v47.37h47.37Z"/>
        <path class="cls-1" d="M53.68,55.26v94.74c26.16,0,47.37-21.21,47.37-47.37s-21.21-47.37-47.37-47.37Z"/>
        <path class="cls-1" d="M101.05,0c-26.16,0-47.37,21.21-47.37,47.37h47.37V0Z"/>
        <rect class="cls-1" x="101.05" width="47.37" height="47.37"/>
      </g>
    </g>
  </g>
</svg>